# xmcd
#
# Track frame offsets:
#	150
#	22005
#	49248
#	78450
#	122208
#	142830
#	175158
#	204783
#	229672
#	253900
#	276719
#	303857
#	336694
#
# Disc length: 4792 seconds
#
# Revision: 2
# Processed by: cddbd v1.5.2PL0 Copyright (c) Steve Scherf et al.
# Submitted via: audiograbber 1.83.01
#
DISCID=c012b60d
DTITLE=Moss Band,Nick - From The Root To The Fruit  disc 2
DYEAR=2016
DGENRE=Rock
TTITLE0=Catch me I'm falling
TTITLE1=Jupiter Florida
TTITLE2=Breakdown
TTITLE3=Serves me right (Space Jam)
TTITLE4=Ta ta for tay tay
TTITLE5=Breathe easy
TTITLE6=Free will
TTITLE7=Grateful
TTITLE8=Shade tree
TTITLE9=Stuck
TTITLE10=Standby
TTITLE11=Speak up
TTITLE12=Heavy water
EXTD=
EXTT0=
EXTT1=
EXTT2=
EXTT3=
EXTT4=
EXTT5=
EXTT6=
EXTT7=
EXTT8=
EXTT9=
EXTT10=
EXTT11=
EXTT12=
PLAYORDER=
